<svg id="Capa_1" enable-background="new 0 0 512 512" height="512" viewBox="0 0 512 512" width="512" xmlns="http://www.w3.org/2000/svg"><g><g><path d="m340.334 512c-.193 0-.387-.007-.58-.022-2.324-.177-4.44-1.41-5.739-3.346l-14.317-21.314c-2.344-3.49-1.415-8.218 2.074-10.562 3.491-2.346 8.219-1.414 10.562 2.074l8.934 13.299 8.912-9.688c2.845-3.094 7.661-3.295 10.755-.448 3.093 2.845 3.294 7.661.448 10.755l-15.448 16.793c-1.448 1.573-3.482 2.459-5.601 2.459z" fill="#95d6a4"/></g><g><path d="m132.211 512c-.193 0-.387-.007-.58-.022-2.324-.177-4.44-1.41-5.739-3.346l-14.317-21.314c-2.344-3.49-1.415-8.218 2.074-10.562 3.491-2.346 8.219-1.414 10.562 2.074l8.934 13.299 8.912-9.688c2.845-3.094 7.661-3.295 10.755-.448 3.093 2.845 3.294 7.661.448 10.755l-15.448 16.793c-1.448 1.573-3.482 2.459-5.601 2.459z" fill="#95d6a4"/></g><path d="m248.48 0c-10.811 0-19.575 8.764-19.575 19.575v484.814h39.149c0-51.85 0-432.584 0-484.814.001-10.811-8.763-19.575-19.574-19.575z" fill="#365e7d"/><path d="m228.906 340.638h39.149v20.385h-39.149z" fill="#2b4d66"/><path d="m228.906 164.237h39.149v19.546h-39.149z" fill="#2b4d66"/><g><path d="m420.957 512h-329.915c-4.204 0-7.611-3.407-7.611-7.611s3.407-7.612 7.611-7.612h329.915c4.204 0 7.612 3.407 7.612 7.612s-3.408 7.611-7.612 7.611z" fill="#b3e59f"/></g><path d="m202.003 164.238h258.815c1.899 0 3.677-.934 4.754-2.498l40.367-58.598c1.358-1.972 1.358-4.578 0-6.55l-40.367-58.598c-1.077-1.564-2.855-2.498-4.754-2.498h-258.815c-3.84 0-6.952 3.113-6.952 6.952v114.837c-.001 3.84 3.112 6.953 6.952 6.953z" fill="#dd636e"/><path d="m460.817 35.496h-30.642l42.087 61.096c1.358 1.972 1.358 4.578 0 6.55l-42.087 61.096h30.642c1.899 0 3.677-.934 4.754-2.498l40.367-58.598c1.358-1.972 1.358-4.578 0-6.55l-40.367-58.598c-1.077-1.564-2.855-2.498-4.754-2.498z" fill="#da4a54"/><g><g><path d="m322.951 136.151c-1.947 0-3.896-.743-5.383-2.229-2.972-2.973-2.972-7.792 0-10.765l57.343-57.344c2.973-2.971 7.792-2.971 10.765 0 2.972 2.973 2.972 7.792 0 10.765l-57.343 57.344c-1.486 1.485-3.434 2.229-5.382 2.229z" fill="#365e7d"/></g><g><path d="m380.294 136.151c-1.948 0-3.896-.743-5.383-2.229l-57.343-57.344c-2.972-2.973-2.972-7.792 0-10.765 2.974-2.972 7.793-2.97 10.765 0l57.343 57.344c2.972 2.973 2.972 7.792 0 10.765-1.486 1.485-3.435 2.229-5.382 2.229z" fill="#365e7d"/></g></g><path d="m309.997 340.638h-258.815c-1.899 0-3.677-.934-4.754-2.498l-40.366-58.598c-1.358-1.972-1.358-4.578 0-6.55l40.367-58.598c1.077-1.564 2.855-2.498 4.754-2.498h258.815c3.84 0 6.952 3.113 6.952 6.952v114.837c-.001 3.84-3.113 6.953-6.953 6.953z" fill="#b3e59f"/><path d="m289.041 211.897v128.741h20.957c3.84 0 6.952-3.113 6.952-6.952v-114.837c0-3.84-3.113-6.952-6.952-6.952z" fill="#95d6a4"/><g><path d="m148.116 306.293c-1.947 0-3.896-.743-5.383-2.229l-20.305-20.305c-2.972-2.973-2.972-7.792 0-10.765 2.973-2.971 7.792-2.971 10.765 0l14.923 14.924 39.446-39.447c2.973-2.971 7.792-2.971 10.765 0 2.972 2.973 2.972 7.792 0 10.765l-44.829 44.829c-1.486 1.485-3.435 2.228-5.382 2.228z" fill="#365e7d"/></g></g></svg>