<svg id="Capa_1" enable-background="new 0 0 512 512" height="512" viewBox="0 0 512 512" width="512" xmlns="http://www.w3.org/2000/svg"><g><g><path d="m439.767 7.5h-318.452c-2.761 0-5 2.239-5 5v138.628h32.793c13.535 0 24.508 10.973 24.508 24.508 0 12.96-10.062 23.563-22.798 24.442v30.401h-.001c4.799.734 8.479 4.868 8.479 9.872v62.073c0 5.004-3.68 9.138-8.479 9.872h.001v30.401c12.737.879 22.798 11.482 22.798 24.442 0 13.535-10.973 24.508-24.508 24.508h-32.793v41.037h69.011c5.523 0 10 4.477 10 10v19.897c0 .009-.001.017-.001.026h7.619c5.523 0 10 4.477 10 10v31.893h231.824v-492c-.001-2.761-2.239-5-5.001-5z" fill="#fff3de"/></g><g fill="#ffe5c2"><path d="m149.108 151.128c.299 0 .595.012.892.023v-138.651c0-2.761 2.239-5 5-5h-33.685c-2.761 0-5 2.239-5 5v138.628z"/><path d="m149.108 391.649h-32.793v41.037h33.685v-41.059c-.297.01-.593.022-.892.022z"/></g><g><g fill="#883f2e"><path d="m159.296 254.29h46.289v34.197h-46.289z"/><path d="m237.502 254.29h66.115v34.197h-66.115z"/></g><g fill="#6d3326"><path d="m159.296 272h46.289v16.487h-46.289z"/><path d="m237.502 272h66.115v16.487h-66.115z"/></g><g><path d="m489.422 271.389c0 13.85-11.228 25.078-25.078 25.078h-155.028c-3.148 0-5.7-2.552-5.7-5.7v-38.757c0-3.148 2.552-5.7 5.7-5.7h155.028c13.85.001 25.078 11.229 25.078 25.079z" fill="#ca6e59"/></g><g><path d="m337.699 275c-3.148 0-5.699-2.552-5.699-5.7v-22.99h-22.684c-3.148 0-5.7 2.552-5.7 5.7v38.757c0 3.148 2.552 5.7 5.7 5.7h155.028c12.623 0 23.064-9.328 24.815-21.467z" fill="#bb5d4c"/></g><g><path d="m237.502 251.311v40.156c0 2.761-2.239 5-5 5h-21.917c-2.761 0-5-2.239-5-5v-40.156c0-2.761 2.239-5 5-5h21.917c2.762 0 5 2.238 5 5z" fill="#ca6e59"/></g><g><path d="m220.083 291.467v-40.156c0-2.761 2.239-5 5-5h-14.498c-2.761 0-5 2.239-5 5v40.156c0 2.761 2.239 5 5 5h14.498c-2.762 0-5-2.239-5-5z" fill="#bb5d4c"/></g><g><path d="m149.296 312.425h-63.071c-.519 0-1.024-.052-1.522-.128v30.401c.566-.039 1.134-.066 1.71-.066h62.695c.575 0 1.144.027 1.71.066v-30.401c-.498.077-1.003.128-1.522.128z" fill="#883f2e"/><path d="m86.225 312.425c-.519 0-1.024-.052-1.522-.128v30.401c.566-.039 1.134-.066 1.71-.066h23.472v-30.208h-23.66z" fill="#6d3326"/><path d="m86.225 230.352h63.071c.519 0 1.024.052 1.522.128v-30.401c-.566.039-1.135.066-1.71.066h-62.695c-.575 0-1.144-.027-1.71-.066v30.401c.498-.076 1.003-.128 1.522-.128z" fill="#883f2e"/><path d="m86.225 230.352h23.66v-30.208h-23.472c-.575 0-1.144-.027-1.71-.066v30.401c.498-.075 1.003-.127 1.522-.127z" fill="#6d3326"/></g><g><path d="m159.296 240.352v62.073c0 5.523-4.477 10-10 10h-63.071c-5.523 0-10-4.477-10-10v-62.073c0-5.523 4.477-10 10-10h63.071c5.523 0 10 4.477 10 10z" fill="#ca6e59"/></g><g><path d="m110 302.425v-62.073c0-5.523 4.477-10 10-10h-33.775c-5.523 0-10 4.477-10 10v62.073c0 5.523 4.477 10 10 10h33.775c-5.523 0-10-4.477-10-10z" fill="#bb5d4c"/></g><g><path d="m195.273 463.608c.034-.337.052-.68.052-1.026v-19.897c0-5.523-4.477-10-10-10h-135.13c-5.523 0-10 4.477-10 10v19.897c0 .346.018.689.052 1.026z" fill="#ca6e59"/><path d="m74.052 463.608c-.034-.337-.052-.68-.052-1.026v-19.897c0-5.523 4.477-10 10-10h-33.805c-5.523 0-10 4.477-10 10v19.897c0 .346.018.689.052 1.026z" fill="#bb5d4c"/><g><path d="m212.943 504.5h-185.365c-2.761 0-5-2.239-5-5v-26.892c0-5.523 4.477-10 10-10h170.365c5.523 0 10 4.477 10 10z" fill="#883f2e"/></g><g><path d="m56 499.5v-26.892c0-5.523 4.477-10 10-10h-33.422c-5.523 0-10 4.477-10 10v26.892c0 2.761 2.239 5 5 5h33.422c-2.761 0-5-2.239-5-5z" fill="#6d3326"/></g></g><g><g><path d="m173.616 367.141c0 13.535-10.973 24.508-24.508 24.508h-62.695c-13.535 0-24.508-10.973-24.508-24.508 0-13.535 10.973-24.508 24.508-24.508h62.695c13.535 0 24.508 10.973 24.508 24.508z" fill="#ca6e59"/></g><g><path d="m95.289 367.141c0-13.535 10.973-24.508 24.508-24.508h-33.384c-13.535 0-24.508 10.973-24.508 24.508s10.973 24.508 24.508 24.508h33.384c-13.535 0-24.508-10.973-24.508-24.508z" fill="#bb5d4c"/></g><g><path d="m173.616 175.636c0 13.535-10.973 24.508-24.508 24.508h-62.695c-13.535 0-24.508-10.973-24.508-24.508 0-13.535 10.973-24.508 24.508-24.508h62.695c13.535 0 24.508 10.973 24.508 24.508z" fill="#ca6e59"/></g><g><path d="m95.289 175.636c0-13.535 10.973-24.508 24.508-24.508h-33.384c-13.535 0-24.508 10.973-24.508 24.508 0 13.535 10.973 24.508 24.508 24.508h33.384c-13.535 0-24.508-10.972-24.508-24.508z" fill="#bb5d4c"/></g></g></g><g><g><circle cx="280.541" cy="124.276" fill="#4fc123" r="70.169"/></g><g><path d="m244 124.276c0-32.956 22.725-60.592 53.355-68.127-5.389-1.326-11.017-2.042-16.814-2.042-38.753 0-70.169 31.416-70.169 70.169s31.416 70.169 70.169 70.169c5.798 0 11.426-.717 16.814-2.042-30.63-7.536-53.355-35.171-53.355-68.127z" fill="#47a920"/></g></g><g><path d="m464.344 238.811h-12.076v-129.811c0-4.218-3.482-7.623-7.73-7.497-4.105.123-7.27 3.704-7.27 7.811v129.496h-50.268c-4.143 0-7.5 3.358-7.5 7.5s3.357 7.5 7.5 7.5h77.344c9.692 0 17.578 7.886 17.578 17.578s-7.886 17.578-17.578 17.578h-153.227v-35.156h40.883c4.143 0 7.5-3.358 7.5-7.5s-3.357-7.5-7.5-7.5h-42.684c-5.424 0-10.091 3.291-12.118 7.979h-53.055c-1.817-4.662-6.344-7.979-11.641-7.979h-21.917c-5.297 0-9.824 3.318-11.641 7.979h-32.148v-6.438c0-6.347-3.408-11.899-8.479-14.967v-19.097c13.174-3.965 22.799-16.203 22.799-30.652 0-17.649-14.358-32.008-32.008-32.008h-25.294v-128.627h313.453v59c0 4.218 3.482 7.623 7.73 7.497 4.105-.123 7.27-3.704 7.27-7.811v-61.186c0-6.904-5.596-12.5-12.5-12.5h-318.453c-6.904 0-12.5 5.596-12.5 12.5v131.128h-22.401c-17.649 0-32.008 14.359-32.008 32.008 0 14.448 9.625 26.685 22.798 30.651v19.097c-5.071 3.068-8.479 8.62-8.479 14.967v62.073c0 6.347 3.408 11.899 8.479 14.967v19.097c-13.173 3.966-22.798 16.203-22.798 30.652 0 17.649 14.358 32.008 32.008 32.008h22.401v26.037h-58.619c-9.649 0-17.5 7.851-17.5 17.5v12.423h-.117c-9.649 0-17.5 7.851-17.5 17.5v26.892c0 6.893 5.607 12.5 12.5 12.5h412.189c6.904 0 12.5-5.596 12.5-12.5v-195.533h12.076c17.964 0 32.578-14.614 32.578-32.578s-14.613-32.578-32.577-32.578zm-219.342 22.979h51.115v19.197h-51.115zm-31.917-7.979h16.917v35.156h-16.917zm-46.289 7.979h31.289v19.197h-31.289zm-97.391-86.154c0-9.378 7.63-17.008 17.008-17.008h62.695c9.378 0 17.008 7.63 17.008 17.008 0 9.378-7.63 17.008-17.008 17.008h-62.695c-9.378.001-17.008-7.629-17.008-17.008zm16.82 129.289c-1.379 0-2.5-1.122-2.5-2.5v-62.073c0-1.378 1.121-2.5 2.5-2.5h63.071c1.379 0 2.5 1.122 2.5 2.5v62.073c0 1.378-1.121 2.5-2.5 2.5zm57.092 15v15.208h-51.114v-15.208zm-51.114-97.073v-15.208h51.114v15.208zm-5.79 161.297c-9.378 0-17.008-7.63-17.008-17.008s7.63-17.008 17.008-17.008h62.695c9.378 0 17.008 7.63 17.008 17.008s-7.63 17.008-17.008 17.008zm119.03 112.851h-175.365v-24.392c0-1.378 1.121-2.5 2.5-2.5h46.422c4.143 0 7.5-3.358 7.5-7.5s-3.357-7.5-7.5-7.5h-31.305v-12.423c0-1.378 1.121-2.5 2.5-2.5h135.13c1.379 0 2.5 1.122 2.5 2.5v12.423h-73.825c-4.143 0-7.5 3.358-7.5 7.5s3.357 7.5 7.5 7.5h88.943c1.379 0 2.5 1.122 2.5 2.5zm231.825 0h-216.825v-24.392c0-9.649-7.851-17.5-17.5-17.5h-.118v-12.423c0-9.649-7.851-17.5-17.5-17.5h-61.511v-26.037h25.294c17.649 0 32.008-14.358 32.008-32.008 0-14.449-9.625-26.686-22.799-30.652v-19.097c5.071-3.068 8.479-8.62 8.479-14.967v-6.438h32.148c1.817 4.662 6.344 7.979 11.641 7.979h21.917c5.297 0 9.824-3.318 11.641-7.979h53.055c2.027 4.688 6.694 7.979 12.118 7.979h127.951v193.035z"/><path d="m202.872 124.276c0 42.827 34.842 77.669 77.669 77.669s77.669-34.842 77.669-77.669-34.842-77.669-77.669-77.669-77.669 34.842-77.669 77.669zm140.338 0c0 34.556-28.113 62.669-62.669 62.669s-62.669-28.113-62.669-62.669 28.113-62.669 62.669-62.669 62.669 28.113 62.669 62.669z"/><path d="m259.147 116.045c-2.93-2.929-7.678-2.929-10.607 0s-2.929 7.678 0 10.606l23.069 23.069c1.465 1.464 3.385 2.197 5.304 2.197s3.839-.732 5.304-2.197l35.758-35.758c2.929-2.929 2.929-7.678 0-10.606-2.93-2.929-7.678-2.929-10.607 0l-30.454 30.455z"/><path d="m243.681 334.569c0 4.142 3.357 7.5 7.5 7.5h137.93c4.143 0 7.5-3.358 7.5-7.5s-3.357-7.5-7.5-7.5h-137.93c-4.143 0-7.5 3.358-7.5 7.5z"/><path d="m389.11 363.546h-71.11c-4.143 0-7.5 3.358-7.5 7.5s3.357 7.5 7.5 7.5h71.11c4.143 0 7.5-3.358 7.5-7.5s-3.357-7.5-7.5-7.5z"/><path d="m251.181 378.546h40.819c4.143 0 7.5-3.358 7.5-7.5s-3.357-7.5-7.5-7.5h-40.819c-4.143 0-7.5 3.358-7.5 7.5s3.357 7.5 7.5 7.5z"/><path d="m389.11 400.023h-137.93c-4.143 0-7.5 3.358-7.5 7.5s3.357 7.5 7.5 7.5h137.93c4.143 0 7.5-3.358 7.5-7.5s-3.357-7.5-7.5-7.5z"/><path d="m389.11 436.5h-36.11c-4.143 0-7.5 3.358-7.5 7.5s3.357 7.5 7.5 7.5h36.11c4.143 0 7.5-3.358 7.5-7.5s-3.357-7.5-7.5-7.5z"/><path d="m330 436.5h-78.819c-4.143 0-7.5 3.358-7.5 7.5s3.357 7.5 7.5 7.5h78.819c4.143 0 7.5-3.358 7.5-7.5s-3.357-7.5-7.5-7.5z"/></g></g></svg>