<svg id="color" height="512" viewBox="0 0 24 24" width="512" xmlns="http://www.w3.org/2000/svg"><path d="m20.5 17h-19c-.827 0-1.5-.673-1.5-1.5v-11.995c0-.825.672-1.499 1.497-1.5l2.002-.005h.001 17c.827 0 1.5.673 1.5 1.5v12c0 .827-.673 1.5-1.5 1.5z" fill="#607d8b"/><path d="m11 17c-.117 0-.235-.041-.329-.124-1.867-1.634-4.825-2.307-6.979-2.055-.436.048-.872-.086-1.196-.375-.315-.281-.496-.685-.496-1.108v-11.752c0-.74.556-1.381 1.292-1.491 2.405-.357 5.653.309 7.708 1.98 2.055-1.671 5.306-2.338 7.707-1.98.737.11 1.293.751 1.293 1.491v11.752c0 .423-.181.827-.496 1.108-.324.289-.761.423-1.196.375-2.156-.252-5.111.421-6.979 2.055-.094.083-.212.124-.329.124z" fill="#cfd8dc"/><path d="m12 1.36v14.98c-.22.16-.45.35-.67.54-.09.08-.21.12-.33.12s-.24-.04-.33-.12c-.22-.19-.45-.38-.67-.54v-14.98c.34.21.67.45 1 .72.33-.27.66-.51 1-.72z" fill="#90a4ae"/><path d="m2 2.004-.503.001c-.825.001-1.497.675-1.497 1.5v11.995c0 .827.673 1.5 1.5 1.5h9.5c-.12 0-.24-.04-.33-.12-.093-.08-.189-.161-.284-.239-1.605-1.253-3.872-1.87-5.776-1.87-.318 0-.625.017-.917.051-.058.006-.116.01-.173.01-.376 0-.742-.134-1.023-.385-.316-.282-.497-.686-.497-1.109zm9-.004h-.094c.032.025.063.05.094.075z" fill="#546d79"/><path d="m10.744 1.877c.086.066.171.133.256.203v-.005c-.031-.025-.062-.05-.094-.075-.053-.042-.107-.083-.162-.123zm-6.126-1.876c-.46 0-.906.031-1.326.093-.736.111-1.292.752-1.292 1.492v.418 11.334c0 .423.181.827.496 1.108.281.251.647.385 1.023.385.058 0 .116-.003.173-.01.293-.034.6-.051.917-.051 1.904 0 4.171.617 5.776 1.87-.129-.106-.259-.208-.386-.301v-14.949c-1.597-.924-3.6-1.389-5.381-1.389z" fill="#b4bcc0"/><path d="m10 1.36v.03 14.95c.126.092.256.194.386.301.096.078.191.159.284.239.09.08.21.12.33.12v-14.92c-.085-.07-.17-.138-.256-.203-.245-.189-.492-.361-.744-.517z" fill="#7d8f97"/><path d="m17.5 11c-3.584 0-6.5 2.916-6.5 6.5s2.916 6.5 6.5 6.5 6.5-2.916 6.5-6.5-2.916-6.5-6.5-6.5z" fill="#ffc107"/><path d="m17.5 22c-.414 0-.75-.336-.75-.75s.336-.75.75-.75.75.336.75.75-.336.75-.75.75z" fill="#fff"/><path d="m18.991 17.658c-.654.502-.741.965-.741 1.592 0 .414-.336.75-.75.75s-.75-.336-.75-.75c0-1.098.331-2.017 1.327-2.782.265-.203.423-.534.423-.884 0-.598-.449-1.083-1-1.083s-1 .486-1 1.083c0 .414-.336.75-.75.75s-.75-.336-.75-.751c0-1.424 1.122-2.583 2.5-2.583s2.5 1.159 2.5 2.583c0 .814-.377 1.589-1.009 2.075z" fill="#fff"/><path d="m17.5 11c-3.584 0-6.5 2.916-6.5 6.5s2.916 6.5 6.5 6.5v-2c-.414 0-.75-.336-.75-.75s.336-.75.75-.75v-.5c-.414 0-.75-.336-.75-.75 0-.85.198-1.593.75-2.24v-2.51c-.551 0-1 .486-1 1.083 0 .414-.336.75-.75.75s-.75-.335-.75-.75c0-1.424 1.122-2.583 2.5-2.583z" fill="#dea806"/><g fill="#dedede"><path d="m17.5 20.5c-.414 0-.75.336-.75.75s.336.75.75.75z"/><path d="m17.5 17.01c-.552.647-.75 1.39-.75 2.24 0 .414.336.75.75.75zm0-4.01c-1.378 0-2.5 1.159-2.5 2.583 0 .414.336.75.75.75s.75-.336.75-.75c0-.598.449-1.083 1-1.083z"/></g></svg>