<?xml version="1.0" encoding="iso-8859-1"?>
<!-- Generator: Adobe Illustrator 19.0.0, SVG Export Plug-In . SVG Version: 6.00 Build 0)  -->
<svg version="1.1" id="Capa_1" xmlns="http://www.w3.org/2000/svg" xmlns:xlink="http://www.w3.org/1999/xlink" x="0px" y="0px"
	 viewBox="0 0 512 512" style="enable-background:new 0 0 512 512;" xml:space="preserve">
<path style="fill:#FEC652;" d="M422,176c44.18,0,80,35.82,80,80s-35.82,80-80,80H210v-40c0,0,130.01,0,132,0c33.14,0,60-26.86,60-60
	s-26.86-60-60-60H422z"/>
<path style="fill:#FF4A70;" d="M402,236h-70c16.57,0,30,13.43,30,30c0,15.18-11.26,27.72-25.89,29.71
	C305.74,292.76,282,267.15,282,236c0-33.14,26.86-60,60-60S402,202.86,402,236z"/>
<path style="fill:#B55646;" d="M332,236h70c0,33.14-26.86,60-60,60c-1.99,0-3.95-0.1-5.89-0.29C350.74,293.72,362,281.18,362,266
	C362,249.43,348.57,236,332,236z"/>
<polygon style="fill:#FFFFFF;" points="210,356 150,356 190,276 210,276 "/>
<polygon style="fill:#95E7EE;" points="190,276 150,356 90,356 130,276 "/>
<polygon style="fill:#FFFFFF;" points="130,276 90,356 70,356 70,276 "/>
<polygon style="fill:#95E7EE;" points="70,276 70,356 69.99,356 10,336 10,296 69.99,276 "/>
<path d="M449.07,223.07c3.91-3.9,3.91-10.24,0-14.14c-3.9-3.91-10.24-3.91-14.14,0c-3.91,3.9-3.91,10.24,0,14.14
	C438.83,226.98,445.17,226.98,449.07,223.07z"/>
<path d="M6.837,345.487l59.99,20c0.039,0.013,0.079,0.022,0.117,0.034c0.092,0.03,0.187,0.054,0.28,0.081
	c0.197,0.057,0.396,0.109,0.596,0.153c0.112,0.025,0.225,0.048,0.338,0.069c0.199,0.037,0.399,0.067,0.6,0.092
	c0.105,0.013,0.21,0.028,0.316,0.038C69.383,365.982,69.692,366,70,366h19.949c0.014,0,0.029,0.002,0.043,0.002
	c0.012,0,0.024-0.002,0.036-0.002h59.922c0.014,0,0.029,0.002,0.043,0.002c0.012,0,0.024-0.002,0.036-0.002H210
	c5.523,0,10-4.477,10-10v-10h202c49.626,0,90-40.374,90-90s-40.374-90-90-90h-80c-38.598,0-70,31.402-70,70
	c0,17.5,6.492,34.251,18.279,47.17c0.889,0.975,1.811,1.911,2.748,2.83H220v-10c0-5.523-4.477-10-10-10H69.99
	c-0.31,0-0.619,0.019-0.927,0.047c-0.093,0.009-0.185,0.022-0.278,0.034c-0.215,0.026-0.428,0.058-0.641,0.098
	c-0.105,0.02-0.21,0.041-0.314,0.064c-0.206,0.046-0.41,0.099-0.613,0.158c-0.091,0.026-0.182,0.05-0.272,0.079
	c-0.039,0.013-0.079,0.021-0.118,0.034l-59.99,20C2.754,287.875,0,291.696,0,296v40C0,340.304,2.754,344.125,6.837,345.487z
	 M173.82,286l-30,60h-37.64l30-60H173.82z M83.82,346H80v-60h33.82L83.82,346z M292,236c0-27.57,22.43-50,50-50
	c24.146,0,44.348,17.205,48.994,40H332c-5.522,0-10,4.477-10,10s4.478,10,10,10c11.028,0,20,8.972,20,20
	c0,9.573-6.864,17.795-16.181,19.605C310.751,282.542,292,261.444,292,236z M366.632,246h24.35
	c-2.618,12.836-10.166,23.899-20.574,31.118C371.442,273.573,372,269.841,372,266C372,258.72,370.045,251.887,366.632,246z M332,306
	c1.43,0,2.859-0.102,4.26-0.255c1.918,0.157,3.843,0.255,5.74,0.255c38.598,0,70-31.402,70-70c0-19.572-8.084-37.284-21.077-50H422
	c38.598,0,70,31.402,70,70s-31.402,70-70,70H220v-20H332z M200,346h-33.82l30-60H200V346z M20,303.207l40-13.335v52.257l-40-13.335
	V303.207z"/>
<path d="M422,306c27.57,0,50-22.43,50-50c0-5.523-4.478-10-10-10s-10,4.477-10,10c0,16.542-13.458,30-30,30c-5.522,0-10,4.477-10,10
	S416.478,306,422,306z"/>
<path d="M176,206c5.523,0,10-4.477,10-10v-10h10c5.523,0,10-4.477,10-10s-4.477-10-10-10h-10v-10c0-5.523-4.477-10-10-10
	s-10,4.477-10,10v10h-10c-5.523,0-10,4.477-10,10s4.477,10,10,10h10v10C166,201.523,170.477,206,176,206z"/>
<path d="M296,446c5.522,0,10-4.477,10-10v-10h10c5.522,0,10-4.477,10-10s-4.478-10-10-10h-10v-10c0-5.523-4.478-10-10-10
	s-10,4.477-10,10v10h-10c-5.522,0-10,4.477-10,10s4.478,10,10,10h10v10C286,441.523,290.478,446,296,446z"/>
<path d="M316,126c5.522,0,10-4.477,10-10v-10h10c5.522,0,10-4.477,10-10s-4.478-10-10-10h-10V76c0-5.523-4.478-10-10-10
	s-10,4.477-10,10v10h-10c-5.522,0-10,4.477-10,10s4.478,10,10,10h10v10C306,121.523,310.478,126,316,126z"/>
<g>
</g>
<g>
</g>
<g>
</g>
<g>
</g>
<g>
</g>
<g>
</g>
<g>
</g>
<g>
</g>
<g>
</g>
<g>
</g>
<g>
</g>
<g>
</g>
<g>
</g>
<g>
</g>
<g>
</g>
</svg>
