<svg id="Layer_1" enable-background="new 0 0 512 512" height="512" viewBox="0 0 512 512" width="512" xmlns="http://www.w3.org/2000/svg"><g><path d="m464 86v368h-320v-448h240z" fill="#fff"/><path d="m384 86h80v16h-80z" fill="#dce1e7"/><path d="m144 438h320v16h-320z" fill="#dce1e7"/><path d="m464 86h-80v-80" fill="#95a4b6"/><g><circle cx="144" cy="410" fill="#b9c2cf" r="96"/><path d="m144 490c-50.325 0-91.6-38.724-95.666-88-.218 2.638-.334 5.305-.334 8 0 53.019 42.981 96 96 96s96-42.981 96-96c0-2.695-.117-5.362-.334-8-4.066 49.276-45.341 88-95.666 88z" fill="#95a4b6"/><g fill="#012d4a"><path d="m470 83.515-83.515-83.515h-248.485v308.181c-53.461 3.117-96 47.59-96 101.819 0 56.243 45.757 102 102 102 38.087 0 71.36-20.987 88.876-52h237.124zm-80-63.03 59.515 59.515h-59.515zm-246 479.515c-49.626 0-90-40.374-90-90s40.374-90 90-90 90 40.374 90 90-40.374 90-90 90zm94.653-52c4.734-11.75 7.347-24.575 7.347-38 0-54.229-42.539-98.702-96-101.819v-296.181h228v80h80v356z"/><path d="m192 64h96v12h-96z"/><path d="m192 96h64v12h-64z"/><path d="m192 144h224v12h-224z"/><path d="m192 176h224v12h-224z"/><path d="m192 240h224v12h-224z"/><path d="m192 272h160v12h-160z"/><path d="m192 208h224v12h-224z"/><path d="m336 320h80v12h-80z"/><path d="m138 360.485v65.515h12v-65.515l21.757 21.758 8.486-8.486-36.243-36.242-36.243 36.242 8.486 8.486z"/><path d="m178 452h-68v-26h-12v38h92v-38h-12z"/></g></g></g></svg>